<?xml version="1.0" encoding="UTF-8"?>
<svg id="Layer_1" xmlns="http://www.w3.org/2000/svg" version="1.1" viewBox="0 0 652.5 395.6">
  <!-- Generator: Adobe Illustrator 29.3.1, SVG Export Plug-In . SVG Version: 2.1.0 Build 151)  -->
  <defs>
    <style>
      .st0 {
        fill: #fff;
      }

      .st1 {
        fill: #00c9d3;
      }

      .st2 {
        fill: #0c3649;
      }
    </style>
  </defs>
  <rect class="st0" x="269.6" y="13.6" width="368.5" height="368.5" rx="137.5" ry="137.5"/>
  <g>
    <path class="st1" d="M134.4,203.8c-2.9-4.5-7.8-8.2-14.6-10.8-6.8-2.8-16-4.7-27.5-6l-26-3.1c-8-.9-13.6-2.5-16.7-4.5-3.1-2-4.7-4.9-4.7-8.7,0-7.5,6.2-13.7,13.7-13.7h34.9c7.6,0,13.7,6.2,13.7,13.7v2.8h28.6v-1.7c0-21.4-17.3-38.6-38.7-38.6h-41.8c-10.7,0-20.4,4.4-27.4,11.3-6.9,7-11.3,16.6-11.3,27.3s3.6,18.6,10.8,24.4c7.3,5.8,19,9.6,35.1,11.4l25.2,2.8c8.8,1,14.9,2.6,18.1,4.7,3.3,2.2,4.9,5.2,4.9,9.2,0,8.1-6.5,14.5-14.5,14.5h-38.5c-8.1,0-14.5-6.5-14.5-14.5v-4.8H14.4v1.6c0,23,18.6,41.6,41.5,41.6h41.4c11.4,0,21.8-4.6,29.3-12.1s12.2-17.9,12.2-29.4-1.4-12.7-4.4-17.3Z"/>
    <path class="st1" d="M311.1,262.6h-20.7l-40.8-90.5-4.8-10.7c-.7-1.5-1.7-2.7-3-3.3-1.1-.8-2.5-1.1-3.8-1.1-2.9,0-5.7,1.7-6.9,4.5l-17.9,40c-1.3,2.8.8,6,3.8,6h28.2l10.7,23.8h-47c-3.2,0-5.8-1.6-7.4-4l-16,35.5h-20.7c-4.8,0-8.2-5.1-6.1-9.6l46.3-99c3-6.4,7.8-11.7,13.5-15.3,5.7-3.6,12.5-5.7,19.5-5.7s6.6.5,9.8,1.3c3.2.9,6.4,2.3,9.1,4,6,3.6,10.9,9,14,15.7l46.3,99c2.1,4.5-1.1,9.6-6.1,9.6Z"/>
  </g>
  <g>
    <path class="st2" d="M568.5,180.5h-66.6v-17.9c0-1.9,1.4-3.4,3.1-3.4h60.3c1.7,0,3.1,1.5,3.1,3.4v17.9ZM523.3,169.6h24v66.7h-24v-66.7Z"/>
    <path class="st2" d="M464.7,236.4h-21.6c-15.3,0-27.8-12.5-27.8-27.8v-21.6c0-15.3,12.5-27.8,27.8-27.8h21.6c15.3,0,27.8,12.5,27.8,27.8v21.6c0,15.3-12.5,27.8-27.8,27.8ZM443,180.5c-3.6,0-6.5,2.9-6.5,6.5v21.6c0,3.6,2.9,6.5,6.5,6.5h21.6c3.6,0,6.5-2.9,6.5-6.5v-21.6c0-3.6-2.9-6.5-6.5-6.5h-21.6Z"/>
    <path class="st2" d="M372.6,236.4h-34.2v-21.2h34.2c4.6,0,8.4-3.8,8.4-8.4v-17.9c0-4.6-3.8-8.4-8.4-8.4h-34.2v-21.2h34.2c16.3,0,29.6,13.3,29.6,29.6v17.9c0,16.3-13.3,29.6-29.6,29.6Z"/>
  </g>
</svg>