<?xml version="1.0" encoding="UTF-8"?>
<svg id="Layer_1" xmlns="http://www.w3.org/2000/svg" version="1.1" viewBox="0 0 456.1 269.5">
  <!-- Generator: Adobe Illustrator 29.3.1, SVG Export Plug-In . SVG Version: 2.1.0 Build 151)  -->
  <defs>
    <style>
      .st0 {
        fill: #00c9d3;
      }

      .st1 {
        fill: #0c3649;
      }

      .st2 {
        fill: #f8f8f8;
      }
    </style>
  </defs>
  <rect class="st1" x="186.6" y="0" width="269.5" height="269.5" rx="100.6" ry="100.6"/>
  <g>
    <path class="st0" d="M87.7,139.1c-2.2-3.3-5.7-6-10.7-7.9-5-2-11.7-3.5-20.1-4.4l-19-2.3c-5.8-.7-9.9-1.8-12.2-3.3-2.3-1.5-3.5-3.6-3.5-6.4,0-5.5,4.5-10,10-10h25.5c5.6,0,10,4.5,10,10v2.1h20.9v-1.3c0-15.6-12.6-28.2-28.3-28.2h-30.5c-7.8,0-14.9,3.2-20.1,8.3-5.1,5.1-8.3,12.1-8.3,20s2.6,13.6,7.9,17.8c5.3,4.2,13.9,7,25.7,8.3l18.4,2c6.5.8,10.9,1.9,13.3,3.5,2.4,1.6,3.6,3.8,3.6,6.7,0,5.9-4.8,10.6-10.6,10.6h-28.2c-5.9,0-10.6-4.7-10.6-10.6v-3.5H0v1.2c0,16.8,13.6,30.4,30.3,30.4h30.3c8.3,0,16-3.4,21.5-8.9s8.9-13.1,8.9-21.5-1-9.3-3.2-12.6Z"/>
    <path class="st0" d="M217,182.1h-15.1l-29.8-66.2-3.5-7.8c-.5-1.1-1.3-1.9-2.2-2.4-.8-.6-1.8-.8-2.8-.8-2.2,0-4.2,1.3-5.1,3.3l-13.1,29.2c-1,2.1.6,4.4,2.8,4.4h20.6l7.9,17.4h-34.4c-2.4,0-4.2-1.2-5.4-2.9l-11.7,26h-15.1c-3.5,0-6-3.8-4.4-7l33.9-72.4c2.2-4.7,5.7-8.5,9.9-11.2,4.2-2.6,9.2-4.2,14.3-4.2s4.9.3,7.1,1c2.4.7,4.7,1.7,6.7,2.9,4.4,2.6,8,6.6,10.3,11.5l33.9,72.4c1.5,3.3-.8,7-4.4,7Z"/>
  </g>
  <g>
    <path class="st2" d="M405.3,122.1h-48.7v-13.1c0-1.4,1-2.5,2.3-2.5h44.1c1.3,0,2.3,1.1,2.3,2.5v13.1ZM372.2,114.1h17.5v48.8h-17.5v-48.8Z"/>
    <path class="st2" d="M329.3,163h-15.8c-11.2,0-20.3-9.1-20.3-20.3v-15.8c0-11.2,9.1-20.3,20.3-20.3h15.8c11.2,0,20.3,9.1,20.3,20.3v15.8c0,11.2-9.1,20.3-20.3,20.3ZM313.5,122.1c-2.6,0-4.8,2.1-4.8,4.8v15.8c0,2.6,2.1,4.8,4.8,4.8h15.8c2.6,0,4.8-2.1,4.8-4.8v-15.8c0-2.6-2.1-4.8-4.8-4.8h-15.8Z"/>
    <path class="st2" d="M261.9,163h-25v-15.5h25c3.4,0,6.2-2.8,6.2-6.2v-13.1c0-3.4-2.8-6.2-6.2-6.2h-25v-15.5h25c12,0,21.7,9.7,21.7,21.7v13.1c0,12-9.7,21.7-21.7,21.7Z"/>
  </g>
</svg>